# xmcd
#
# Track frame offsets: 
#        150
#        14139
#        26831
#        42381
#        55964
#        75441
#        90597
#        107713
#        120944
#        136442
#        153183
#        170707
#        186576
#        202286
#
# Disc length: 2973 seconds
#
# Revision: 0
# Processed by: cddbd v1.5.2PL0 Copyright (c) Steve Scherf et al.
# Submitted via: ExactAudioCopy v0.99pb3
#
DISCID=c40b9b0e
DTITLE=Pieta Brown - Paradise Outlaw
DYEAR=2014
DGENRE=Country
TTITLE0=Wondering How
TTITLE1=Ricochet
TTITLE2=Flowers of Love
TTITLE3=Do You Know
TTITLE4=No Not Me
TTITLE5=Before Gas and TV
TTITLE6=All My Rain
TTITLE7=Little Swainson
TTITLE8=Painter's Hands
TTITLE9=Heading Home
TTITLE10=Letter In Hand
TTITLE11=Back To You
TTITLE12=Receiver
TTITLE13=Rise My Only Rose
EXTD=
EXTT0=
EXTT1=
EXTT2=
EXTT3=
EXTT4=
EXTT5=
EXTT6=
EXTT7=
EXTT8=
EXTT9=
EXTT10=
EXTT11=
EXTT12=
EXTT13=
PLAYORDER=
